<svg width="235" height="46" viewBox="0 0 235 46" fill="none" xmlns="http://www.w3.org/2000/svg">
<path d="M10.035 36.915C8.325 36.915 6.705 36.615 5.175 36.015C3.645 35.415 2.4 34.5 1.44 33.27C0.51 32.07 0.045 30.555 0.045 28.725C0.045 27.135 0.375 25.89 1.035 24.99C1.725 24.09 2.58 23.46 3.6 23.1C4.62 22.74 5.61 22.56 6.57 22.56C5.64 23.52 4.935 24.54 4.455 25.62C4.005 26.7 3.78 27.735 3.78 28.725C3.78 29.775 4.035 30.765 4.545 31.695C5.055 32.595 5.835 33.33 6.885 33.9C7.935 34.47 9.24 34.755 10.8 34.755C12.15 34.755 13.455 34.515 14.715 34.035C16.005 33.585 17.055 32.895 17.865 31.965C18.705 31.035 19.125 29.88 19.125 28.5C19.125 27.24 18.78 26.16 18.09 25.26C17.4 24.36 16.515 23.565 15.435 22.875C14.355 22.155 13.2 21.48 11.97 20.85C10.77 20.19 9.63 19.485 8.55 18.735C7.47 17.985 6.585 17.13 5.895 16.17C5.205 15.18 4.86 13.995 4.86 12.615C4.86 11.385 5.16 10.08 5.76 8.7C6.39 7.29 7.26 5.97 8.37 4.74C9.51 3.51 10.875 2.52 12.465 1.77C14.085 0.989999 15.885 0.599999 17.865 0.599999C19.815 0.599999 21.18 1.035 21.96 1.905C22.77 2.775 23.175 3.885 23.175 5.235C23.175 6.345 22.98 7.53 22.59 8.79C22.23 10.05 21.765 11.25 21.195 12.39C20.655 13.5 20.13 14.46 19.62 15.27C18.99 15.12 18.525 14.865 18.225 14.505C17.955 14.145 17.82 13.68 17.82 13.11C17.82 12.48 17.94 11.775 18.18 10.995C18.45 10.185 18.75 9.36 19.08 8.52C19.44 7.65 19.755 6.825 20.025 6.045C20.295 5.235 20.43 4.515 20.43 3.885C20.43 3.315 20.265 2.88 19.935 2.58C19.605 2.25 18.945 2.085 17.955 2.085C16.545 2.085 15.24 2.415 14.04 3.075C12.84 3.705 11.79 4.515 10.89 5.505C10.02 6.495 9.33 7.53 8.82 8.61C8.34 9.69 8.1 10.68 8.1 11.58C8.1 12.66 8.43 13.59 9.09 14.37C9.78 15.15 10.65 15.855 11.7 16.485C12.78 17.115 13.92 17.76 15.12 18.42C16.32 19.05 17.445 19.755 18.495 20.535C19.575 21.315 20.445 22.245 21.105 23.325C21.795 24.375 22.14 25.68 22.14 27.24C22.14 28.8 21.795 30.18 21.105 31.38C20.415 32.58 19.47 33.585 18.27 34.395C17.1 35.205 15.795 35.82 14.355 36.24C12.915 36.69 11.475 36.915 10.035 36.915ZM28.4699 34.305C27.2099 34.305 26.2649 33.915 25.6349 33.135C25.0049 32.385 24.6899 31.455 24.6899 30.345C24.6899 29.655 24.8099 28.785 25.0499 27.735C25.2899 26.685 25.6199 25.59 26.0399 24.45C26.4899 23.28 26.9999 22.185 27.5699 21.165C28.1399 20.145 28.7399 19.32 29.3699 18.69C30.0299 18.03 30.6749 17.7 31.3049 17.7C31.6349 17.7 31.9199 17.805 32.1599 18.015C32.4299 18.225 32.5649 18.525 32.5649 18.915C32.5649 19.305 32.3249 19.89 31.8449 20.67C31.3949 21.45 30.8549 22.365 30.2249 23.415C29.5949 24.435 29.0399 25.5 28.5599 26.61C28.1099 27.72 27.8849 28.785 27.8849 29.805C27.8849 30.795 28.0649 31.455 28.4249 31.785C28.7849 32.115 29.3099 32.28 29.9999 32.28C31.0199 32.28 32.1149 31.77 33.2849 30.75C34.4849 29.73 35.7299 27.945 37.0199 25.395L37.6049 26.025C36.6149 28.665 35.2949 30.705 33.6449 32.145C32.0249 33.585 30.2999 34.305 28.4699 34.305ZM33.8249 13.875C33.2849 13.875 32.7899 13.74 32.3399 13.47C31.9199 13.2 31.7099 12.795 31.7099 12.255C31.7099 11.535 32.0849 10.935 32.8349 10.455C33.6149 9.945 34.4099 9.69 35.2199 9.69C35.7299 9.69 36.1499 9.81 36.4799 10.05C36.8099 10.29 36.9749 10.695 36.9749 11.265C36.9749 11.895 36.6449 12.495 35.9849 13.065C35.3249 13.605 34.6049 13.875 33.8249 13.875ZM40.4923 36.285C38.8423 36.285 37.5823 35.76 36.7123 34.71C35.8723 33.66 35.4523 32.22 35.4523 30.39C35.4523 28.92 35.7073 27.18 36.2173 25.17C36.7273 23.13 37.4023 21.015 38.2423 18.825C39.0823 16.605 40.0123 14.43 41.0323 12.3C42.0823 10.17 43.1473 8.25 44.2273 6.54C45.3073 4.8 46.3123 3.42 47.2423 2.4C48.2023 1.38 49.0123 0.869998 49.6723 0.869998C50.2423 0.869998 50.6623 1.215 50.9323 1.905C51.2023 2.565 51.3523 3.225 51.3823 3.885C51.3823 4.725 51.2023 5.745 50.8423 6.945C50.4823 8.145 49.9723 9.42 49.3123 10.77C48.6523 12.12 47.8873 13.455 47.0173 14.775C46.1473 16.095 45.2023 17.31 44.1823 18.42C43.1623 19.5 42.0973 20.355 40.9873 20.985C40.8073 21.345 40.5523 22.02 40.2223 23.01C39.8923 24 39.5923 25.125 39.3223 26.385C39.0523 27.645 38.9173 28.89 38.9173 30.12C38.9173 31.35 39.0973 32.37 39.4573 33.18C39.8173 34.02 40.4323 34.44 41.3023 34.44C42.1123 34.44 42.9673 34.08 43.8673 33.36C44.7973 32.67 45.5473 31.8 46.1173 30.75C45.0073 30.15 44.1673 29.31 43.5973 28.23C43.0573 27.15 42.7873 26.025 42.7873 24.855C42.7873 23.385 43.1773 22.215 43.9573 21.345C44.7373 20.445 45.6673 19.995 46.7473 19.995C47.6773 19.995 48.4423 20.355 49.0423 21.075C49.6423 21.795 49.9423 22.89 49.9423 24.36C49.9423 25.26 49.8073 26.22 49.5373 27.24C49.2973 28.23 48.9523 29.205 48.5023 30.165C48.6523 30.195 48.7873 30.225 48.9073 30.255C49.0573 30.255 49.2373 30.255 49.4473 30.255C50.4973 30.255 51.3823 29.985 52.1023 29.445C52.8523 28.875 53.4823 28.2 53.9923 27.42C54.5023 26.64 54.9073 25.935 55.2073 25.305L55.8373 26.115C55.0573 27.975 54.1123 29.34 53.0023 30.21C51.8923 31.05 50.5573 31.47 48.9973 31.47C48.8173 31.47 48.6223 31.47 48.4123 31.47C48.2323 31.44 48.0523 31.41 47.8723 31.38C47.0623 32.73 46.0423 33.885 44.8123 34.845C43.5823 35.805 42.1423 36.285 40.4923 36.285ZM46.7923 29.445C47.0623 28.815 47.2723 28.17 47.4223 27.51C47.5723 26.85 47.6473 26.145 47.6473 25.395C47.6473 24.315 47.5123 23.505 47.2423 22.965C47.0023 22.425 46.6873 22.155 46.2973 22.155C45.8773 22.155 45.5173 22.44 45.2173 23.01C44.9173 23.58 44.7673 24.27 44.7673 25.08C44.7673 25.77 44.9023 26.55 45.1723 27.42C45.4723 28.26 46.0123 28.935 46.7923 29.445ZM41.7523 18.51C42.5323 17.82 43.2823 17.01 44.0023 16.08C44.7523 15.12 45.4423 14.115 46.0723 13.065C46.7023 11.985 47.2573 10.935 47.7373 9.915C48.2473 8.895 48.6523 7.98 48.9523 7.17C49.2523 6.33 49.4173 5.67 49.4473 5.19C49.4473 5.1 49.4473 5.04 49.4473 5.01C49.4473 4.95 49.4323 4.92 49.4023 4.92C49.1323 4.98 48.6823 5.415 48.0523 6.225C47.4223 7.005 46.7173 8.055 45.9373 9.375C45.1573 10.665 44.3923 12.105 43.6423 13.695C42.8923 15.285 42.2623 16.89 41.7523 18.51ZM56.5256 35.115C55.5656 35.115 54.7406 34.785 54.0506 34.125C53.3306 33.495 52.9706 32.535 52.9706 31.245C52.9706 30.165 53.2106 29.01 53.6906 27.78C54.1706 26.55 54.8306 25.335 55.6706 24.135C56.5106 22.935 57.4706 21.84 58.5506 20.85C59.6306 19.86 60.7706 19.065 61.9706 18.465C63.2006 17.865 64.4156 17.565 65.6156 17.565C66.8756 17.565 67.9256 17.895 68.7656 18.555C69.6356 19.185 70.0706 20.025 70.0706 21.075C70.0706 21.885 69.8156 22.455 69.3056 22.785C68.7956 23.115 68.1656 23.22 67.4156 23.1C67.4756 22.86 67.5206 22.605 67.5506 22.335C67.6106 22.035 67.6406 21.75 67.6406 21.48C67.6406 20.85 67.5056 20.295 67.2356 19.815C66.9656 19.335 66.4406 19.095 65.6606 19.095C64.8206 19.095 63.9656 19.38 63.0956 19.95C62.2256 20.52 61.3856 21.27 60.5756 22.2C59.7656 23.13 59.0456 24.15 58.4156 25.26C57.7856 26.37 57.2906 27.465 56.9306 28.545C56.5706 29.625 56.3906 30.585 56.3906 31.425C56.3906 32.445 56.7656 32.955 57.5156 32.955C58.2056 32.955 58.9556 32.625 59.7656 31.965C60.6056 31.305 61.4456 30.465 62.2856 29.445C63.1556 28.425 63.9806 27.39 64.7606 26.34C65.5406 25.26 66.2156 24.315 66.7856 23.505C66.9056 23.355 67.0106 23.28 67.1006 23.28C67.2506 23.31 67.4906 23.385 67.8206 23.505C68.1506 23.595 68.4506 23.73 68.7206 23.91C68.9906 24.09 69.1256 24.33 69.1256 24.63C69.1256 24.93 68.9906 25.32 68.7206 25.8C68.4506 26.25 68.1506 26.76 67.8206 27.33C67.4906 27.9 67.1906 28.47 66.9206 29.04C66.6506 29.61 66.5156 30.165 66.5156 30.705C66.5156 31.095 66.6206 31.485 66.8306 31.875C67.0706 32.235 67.4456 32.415 67.9556 32.415C68.7056 32.415 69.7256 31.875 71.0156 30.795C72.3356 29.685 73.6706 27.885 75.0206 25.395L75.7406 26.115C75.0506 27.735 74.1956 29.16 73.1756 30.39C72.1856 31.62 71.1356 32.58 70.0256 33.27C68.9156 33.99 67.8056 34.35 66.6956 34.35C65.4956 34.35 64.6106 33.975 64.0406 33.225C63.4706 32.505 63.1556 31.71 63.0956 30.84C63.0956 30.75 63.0956 30.66 63.0956 30.57C63.1256 30.45 63.1406 30.345 63.1406 30.255C61.9106 31.785 60.7856 32.97 59.7656 33.81C58.7456 34.68 57.6656 35.115 56.5256 35.115ZM76.0739 45.6C75.3239 45.6 74.6339 45.375 74.0039 44.925C73.4039 44.475 73.1039 43.785 73.1039 42.855C73.1039 41.895 73.3739 41.025 73.9139 40.245C74.4539 39.495 75.1589 38.805 76.0289 38.175C76.8989 37.545 77.8439 36.96 78.8639 36.42C79.9139 35.88 80.9489 35.355 81.9689 34.845C82.3289 33.915 82.7189 32.775 83.1389 31.425C83.5589 30.075 83.9339 28.74 84.2639 27.42C83.3339 28.8 82.3289 30.015 81.2489 31.065C80.1989 32.085 79.0289 32.595 77.7389 32.595C77.1989 32.595 76.6289 32.49 76.0289 32.28C75.4589 32.04 74.9789 31.65 74.5889 31.11C74.1989 30.54 74.0039 29.805 74.0039 28.905C74.0039 28.095 74.1389 27.135 74.4089 26.025C74.7089 24.915 75.0689 23.835 75.4889 22.785C75.9389 21.735 76.3889 20.865 76.8389 20.175C77.3189 19.455 77.7389 19.095 78.0989 19.095C78.2489 19.095 78.4889 19.155 78.8189 19.275C79.1489 19.395 79.4639 19.56 79.7639 19.77C80.0939 19.98 80.2889 20.205 80.3489 20.445C80.0789 20.805 79.7789 21.33 79.4489 22.02C79.1189 22.71 78.8039 23.475 78.5039 24.315C78.2039 25.155 77.9489 25.98 77.7389 26.79C77.5589 27.6 77.4689 28.29 77.4689 28.86C77.4689 29.34 77.5589 29.745 77.7389 30.075C77.9489 30.405 78.3239 30.57 78.8639 30.57C79.4939 30.57 80.1539 30.3 80.8439 29.76C81.5639 29.22 82.2689 28.53 82.9589 27.69C83.6489 26.82 84.2639 25.935 84.8039 25.035C84.8939 24.765 84.9689 24.435 85.0289 24.045C85.0889 23.625 85.1789 23.19 85.2989 22.74C85.4189 22.26 85.6589 21.795 86.0189 21.345C86.4089 20.865 86.9489 20.625 87.6389 20.625C87.8489 20.625 88.0439 20.64 88.2239 20.67C88.4339 20.7 88.6739 20.745 88.9439 20.805C88.9439 21.255 88.7789 22.14 88.4489 23.46C88.1489 24.75 87.7439 26.265 87.2339 28.005C86.7239 29.715 86.1389 31.44 85.4789 33.18C86.7989 32.67 88.1339 31.815 89.4839 30.615C90.8339 29.385 91.9289 27.705 92.7689 25.575L93.4889 26.115C93.0389 27.615 92.3489 28.92 91.4189 30.03C90.5189 31.11 89.4989 32.04 88.3589 32.82C87.2189 33.57 86.0789 34.2 84.9389 34.71C84.1289 36.66 83.2589 38.46 82.3289 40.11C81.3989 41.79 80.4089 43.125 79.3589 44.115C78.3389 45.105 77.2439 45.6 76.0739 45.6ZM75.7139 44.025C76.2539 44.025 77.0339 43.425 78.0539 42.225C79.1039 41.025 80.1689 39.135 81.2489 36.555C80.1989 37.095 79.1789 37.68 78.1889 38.31C77.1989 38.97 76.3739 39.66 75.7139 40.38C75.0539 41.1 74.7239 41.88 74.7239 42.72C74.7239 42.99 74.7989 43.275 74.9489 43.575C75.0989 43.875 75.3539 44.025 75.7139 44.025ZM94.2307 35.115C93.2707 35.115 92.4457 34.785 91.7557 34.125C91.0357 33.495 90.6757 32.535 90.6757 31.245C90.6757 30.165 90.9157 29.01 91.3957 27.78C91.8757 26.55 92.5357 25.335 93.3757 24.135C94.2157 22.935 95.1757 21.84 96.2557 20.85C97.3357 19.86 98.4757 19.065 99.6757 18.465C100.906 17.865 102.121 17.565 103.321 17.565C104.581 17.565 105.631 17.895 106.471 18.555C107.341 19.185 107.776 20.025 107.776 21.075C107.776 21.885 107.521 22.455 107.011 22.785C106.501 23.115 105.871 23.22 105.121 23.1C105.181 22.86 105.226 22.605 105.256 22.335C105.316 22.035 105.346 21.75 105.346 21.48C105.346 20.85 105.211 20.295 104.941 19.815C104.671 19.335 104.146 19.095 103.366 19.095C102.526 19.095 101.671 19.38 100.801 19.95C99.9307 20.52 99.0907 21.27 98.2807 22.2C97.4707 23.13 96.7507 24.15 96.1207 25.26C95.4907 26.37 94.9957 27.465 94.6357 28.545C94.2757 29.625 94.0957 30.585 94.0957 31.425C94.0957 32.445 94.4707 32.955 95.2207 32.955C95.9107 32.955 96.6607 32.625 97.4707 31.965C98.3107 31.305 99.1507 30.465 99.9907 29.445C100.861 28.425 101.686 27.39 102.466 26.34C103.246 25.26 103.921 24.315 104.491 23.505C104.611 23.355 104.716 23.28 104.806 23.28C104.956 23.31 105.196 23.385 105.526 23.505C105.856 23.595 106.156 23.73 106.426 23.91C106.696 24.09 106.831 24.33 106.831 24.63C106.831 24.93 106.696 25.32 106.426 25.8C106.156 26.25 105.856 26.76 105.526 27.33C105.196 27.9 104.896 28.47 104.626 29.04C104.356 29.61 104.221 30.165 104.221 30.705C104.221 31.095 104.326 31.485 104.536 31.875C104.776 32.235 105.151 32.415 105.661 32.415C106.411 32.415 107.431 31.875 108.721 30.795C110.041 29.685 111.376 27.885 112.726 25.395L113.446 26.115C112.756 27.735 111.901 29.16 110.881 30.39C109.891 31.62 108.841 32.58 107.731 33.27C106.621 33.99 105.511 34.35 104.401 34.35C103.201 34.35 102.316 33.975 101.746 33.225C101.176 32.505 100.861 31.71 100.801 30.84C100.801 30.75 100.801 30.66 100.801 30.57C100.831 30.45 100.846 30.345 100.846 30.255C99.6157 31.785 98.4907 32.97 97.4707 33.81C96.4507 34.68 95.3707 35.115 94.2307 35.115ZM125.659 34.71C124.759 34.71 123.979 34.41 123.319 33.81C122.659 33.24 122.134 32.505 121.744 31.605C121.354 30.705 121.054 29.79 120.844 28.86C120.664 27.93 120.574 27.12 120.574 26.43C120.964 26.37 121.474 26.25 122.104 26.07C122.734 25.89 123.379 25.65 124.039 25.35C124.699 25.02 125.254 24.615 125.704 24.135C126.154 23.625 126.379 23.025 126.379 22.335C126.379 21.765 126.184 21.315 125.794 20.985C125.404 20.625 124.909 20.445 124.309 20.445C123.439 20.445 122.614 20.745 121.834 21.345C121.054 21.915 120.334 22.68 119.674 23.64C119.044 24.57 118.474 25.59 117.964 26.7C117.454 27.78 117.004 28.83 116.614 29.85C116.224 30.84 115.894 31.695 115.624 32.415C115.354 33.195 115.054 33.72 114.724 33.99C114.424 34.26 114.019 34.395 113.509 34.395C113.209 34.395 112.924 34.275 112.654 34.035C112.384 33.825 112.174 33.45 112.024 32.91C111.904 32.37 111.844 31.65 111.844 30.75C111.844 29.01 112.099 27.075 112.609 24.945C113.119 22.785 113.794 20.58 114.634 18.33C115.504 16.08 116.449 13.92 117.469 11.85C118.489 9.78 119.509 7.92 120.529 6.27C121.579 4.62 122.554 3.315 123.454 2.355C124.354 1.365 125.089 0.869998 125.659 0.869998C126.139 0.869998 126.529 1.17 126.829 1.77C127.159 2.37 127.324 3.12 127.324 4.02C127.324 5.04 127.099 6.18 126.649 7.44C126.199 8.7 125.554 9.975 124.714 11.265C123.904 12.525 122.929 13.725 121.789 14.865C120.679 16.005 119.434 16.98 118.054 17.79C117.184 19.92 116.509 22.005 116.029 24.045C115.579 26.085 115.309 27.855 115.219 29.355C115.729 28.125 116.329 26.85 117.019 25.53C117.709 24.18 118.474 22.905 119.314 21.705C120.184 20.505 121.114 19.545 122.104 18.825C123.094 18.075 124.144 17.7 125.254 17.7C126.424 17.7 127.429 18.105 128.269 18.915C129.139 19.725 129.574 20.745 129.574 21.975C129.574 22.875 129.319 23.67 128.809 24.36C128.329 25.02 127.729 25.56 127.009 25.98C126.319 26.4 125.614 26.715 124.894 26.925C124.204 27.135 123.619 27.24 123.139 27.24C123.199 27.6 123.304 28.08 123.454 28.68C123.604 29.28 123.814 29.895 124.084 30.525C124.384 31.125 124.744 31.635 125.164 32.055C125.584 32.475 126.079 32.685 126.649 32.685C127.459 32.685 128.254 32.355 129.034 31.695C129.814 31.005 130.579 30.105 131.329 28.995C132.079 27.855 132.754 26.595 133.354 25.215L133.894 25.89C133.414 27.36 132.739 28.785 131.869 30.165C130.999 31.515 130.024 32.61 128.944 33.45C127.864 34.29 126.769 34.71 125.659 34.71ZM119.179 15.18C120.199 14.31 121.174 13.29 122.104 12.12C123.064 10.95 123.844 9.75 124.444 8.52C125.074 7.26 125.404 6.135 125.434 5.145C125.434 5.055 125.419 4.995 125.389 4.965C125.389 4.935 125.389 4.92 125.389 4.92C125.089 4.98 124.594 5.49 123.904 6.45C123.244 7.41 122.494 8.655 121.654 10.185C120.814 11.685 119.989 13.35 119.179 15.18ZM143.56 36.915C143.71 36.465 144.16 35.4 144.91 33.72C145.69 32.07 146.71 29.88 147.97 27.15C149.23 24.39 150.7 21.18 152.38 17.52C154.09 13.83 155.95 9.765 157.96 5.325C158.05 5.115 158.14 4.86 158.23 4.56C158.32 4.26 158.365 3.99 158.365 3.75C158.365 3.42 158.275 3.165 158.095 2.985C157.915 2.775 157.54 2.67 156.97 2.67C155.71 2.67 154.675 3.075 153.865 3.885C153.085 4.665 152.5 5.64 152.11 6.81C151.72 7.98 151.525 9.12 151.525 10.23C151.525 10.53 151.525 10.83 151.525 11.13C151.555 11.43 151.6 11.775 151.66 12.165C151 12.165 150.46 11.955 150.04 11.535C149.62 11.085 149.29 10.56 149.05 9.96C148.84 9.33 148.735 8.745 148.735 8.205C148.735 7.215 149.005 6.27 149.545 5.37C150.115 4.47 150.835 3.66 151.705 2.94C152.605 2.22 153.595 1.65 154.675 1.23C155.755 0.809999 156.82 0.599999 157.87 0.599999C158.92 0.599999 159.82 0.899998 160.57 1.5C161.32 2.1 161.89 3.18 162.28 4.74C162.67 6.27 162.865 8.49 162.865 11.4C162.865 13.32 162.79 15.3 162.64 17.34C162.52 19.35 162.385 21.285 162.235 23.145C162.085 24.975 161.995 26.58 161.965 27.96C162.535 26.16 163.255 24.255 164.125 22.245C165.025 20.235 165.985 18.24 167.005 16.26C168.055 14.25 169.075 12.36 170.065 10.59C171.085 8.82 172 7.29 172.81 6C173.62 4.68 174.235 3.705 174.655 3.075C175.075 2.445 175.435 1.965 175.735 1.635C176.065 1.305 176.5 1.14 177.04 1.14C177.46 1.14 178.06 1.29 178.84 1.59C178.6 2.16 178.3 3.045 177.94 4.245C177.58 5.415 177.19 6.795 176.77 8.385C176.32 10.215 175.855 12.24 175.375 14.46C174.925 16.65 174.505 18.87 174.115 21.12C173.755 23.37 173.455 25.515 173.215 27.555C173.005 29.565 172.9 31.305 172.9 32.775C172.9 33.525 172.93 34.11 172.99 34.53C173.05 34.95 173.14 35.31 173.26 35.61C173.41 35.94 173.56 36.375 173.71 36.915C172.51 36.915 171.595 36.72 170.965 36.33C170.335 35.97 169.915 35.385 169.705 34.575C169.495 33.765 169.39 32.685 169.39 31.335C169.39 27.915 169.795 24.3 170.605 20.49C171.415 16.68 172.36 12.735 173.44 8.655C172.6 9.825 171.715 11.25 170.785 12.93C169.885 14.58 168.985 16.35 168.085 18.24C167.185 20.1 166.33 21.96 165.52 23.82C164.71 25.65 163.99 27.36 163.36 28.95C162.76 30.51 162.295 31.815 161.965 32.865C161.725 32.955 161.56 33.015 161.47 33.045C161.38 33.075 161.26 33.09 161.11 33.09C160.12 33.09 159.49 32.505 159.22 31.335C158.95 30.165 158.815 28.545 158.815 26.475C158.815 25.305 158.83 23.985 158.86 22.515C158.92 21.045 158.98 19.545 159.04 18.015C159.13 16.485 159.19 14.985 159.22 13.515C159.28 12.045 159.31 10.68 159.31 9.42C159.31 8.94 159.295 8.49 159.265 8.07C159.265 7.62 159.265 7.2 159.265 6.81C156.925 12.24 154.96 16.875 153.37 20.715C151.78 24.525 150.43 27.63 149.32 30.03C148.21 32.4 147.205 34.14 146.305 35.25C145.435 36.36 144.52 36.915 143.56 36.915ZM181.838 34.35C180.818 34.35 179.978 33.885 179.318 32.955C178.688 32.025 178.373 30.945 178.373 29.715C178.373 28.875 178.508 27.885 178.778 26.745C179.078 25.605 179.438 24.495 179.858 23.415C180.278 22.305 180.713 21.39 181.163 20.67C181.643 19.95 182.063 19.59 182.423 19.59C182.633 19.59 182.933 19.695 183.323 19.905C183.743 20.115 184.103 20.37 184.403 20.67C184.073 21.15 183.668 21.9 183.188 22.92C182.738 23.94 182.333 25.035 181.973 26.205C181.613 27.345 181.433 28.395 181.433 29.355C181.433 29.505 181.448 29.82 181.478 30.3C181.538 30.75 181.658 31.17 181.838 31.56C182.048 31.95 182.393 32.145 182.873 32.145C183.383 32.145 183.938 31.875 184.538 31.335C185.138 30.765 185.738 30.03 186.338 29.13C186.968 28.23 187.568 27.255 188.138 26.205C188.708 25.155 189.233 24.15 189.713 23.19C190.193 22.23 190.583 21.42 190.883 20.76C191.123 20.79 191.438 20.865 191.828 20.985C192.248 21.075 192.608 21.21 192.908 21.39C193.238 21.57 193.403 21.825 193.403 22.155C193.403 22.245 193.253 22.62 192.953 23.28C192.683 23.94 192.353 24.735 191.963 25.665C191.573 26.595 191.228 27.54 190.928 28.5C190.658 29.46 190.523 30.3 190.523 31.02C190.523 31.47 190.613 31.86 190.793 32.19C190.973 32.52 191.318 32.685 191.828 32.685C192.458 32.685 193.208 32.4 194.078 31.83C194.978 31.26 195.893 30.435 196.823 29.355C197.753 28.245 198.578 26.94 199.298 25.44L199.928 25.935C199.268 27.555 198.413 29.01 197.363 30.3C196.343 31.56 195.233 32.55 194.033 33.27C192.863 33.99 191.723 34.35 190.613 34.35C189.773 34.35 189.128 34.155 188.678 33.765C188.228 33.405 187.913 32.925 187.733 32.325C187.583 31.725 187.508 31.11 187.508 30.48C187.508 30.27 187.508 30.045 187.508 29.805C187.538 29.565 187.568 29.34 187.598 29.13C187.088 30 186.518 30.84 185.888 31.65C185.288 32.43 184.643 33.075 183.953 33.585C183.293 34.095 182.588 34.35 181.838 34.35ZM202.062 34.35C200.682 34.35 199.707 33.885 199.137 32.955C198.597 32.025 198.327 30.915 198.327 29.625C198.327 28.155 198.597 26.43 199.137 24.45C199.677 22.47 200.382 20.4 201.252 18.24C202.152 16.05 203.127 13.92 204.177 11.85C205.257 9.75 206.322 7.86 207.372 6.18C208.452 4.47 209.442 3.12 210.342 2.13C211.272 1.11 212.007 0.599999 212.547 0.599999C212.907 0.599999 213.207 0.794999 213.447 1.185C213.717 1.575 213.927 2.055 214.077 2.625C214.227 3.165 214.302 3.66 214.302 4.11C214.302 4.92 214.092 5.985 213.672 7.305C213.282 8.595 212.712 10.035 211.962 11.625C211.242 13.185 210.372 14.79 209.352 16.44C208.362 18.06 207.267 19.62 206.067 21.12C204.867 22.59 203.577 23.865 202.197 24.945C202.077 25.695 201.957 26.445 201.837 27.195C201.747 27.945 201.702 28.635 201.702 29.265C201.702 30.375 201.867 31.2 202.197 31.74C202.557 32.25 203.037 32.505 203.637 32.505C204.417 32.505 205.197 32.145 205.977 31.425C206.787 30.705 207.552 29.805 208.272 28.725C208.992 27.615 209.622 26.475 210.162 25.305L211.107 25.845C209.847 28.455 208.452 30.525 206.922 32.055C205.392 33.585 203.772 34.35 202.062 34.35ZM202.872 22.56C203.922 21.48 204.912 20.28 205.842 18.96C206.772 17.64 207.627 16.29 208.407 14.91C209.217 13.5 209.922 12.15 210.522 10.86C211.122 9.54 211.587 8.37 211.917 7.35C212.247 6.3 212.427 5.475 212.457 4.875C212.457 4.755 212.442 4.68 212.412 4.65C212.382 4.59 212.367 4.56 212.367 4.56C212.127 4.56 211.722 4.92 211.152 5.64C210.612 6.33 209.967 7.275 209.217 8.475C208.497 9.675 207.747 11.055 206.967 12.615C206.187 14.175 205.437 15.81 204.717 17.52C203.997 19.23 203.382 20.91 202.872 22.56ZM213.141 35.07C211.821 35.07 210.771 34.68 209.991 33.9C209.241 33.15 208.866 31.995 208.866 30.435C208.866 29.175 209.106 27.615 209.586 25.755C210.066 23.895 210.666 21.975 211.386 19.995C211.146 19.935 210.876 19.89 210.576 19.86C210.306 19.8 210.051 19.71 209.811 19.59V18.375C210.201 18.435 210.546 18.48 210.846 18.51C211.176 18.54 211.521 18.57 211.881 18.6C212.511 17.01 213.186 15.465 213.906 13.965C214.656 12.465 215.391 11.13 216.111 9.96C216.831 8.79 217.521 7.86 218.181 7.17C218.841 6.48 219.411 6.135 219.891 6.135C220.191 6.135 220.461 6.24 220.701 6.45C220.941 6.66 221.061 6.96 221.061 7.35C221.061 7.92 220.746 8.775 220.116 9.915C219.516 11.025 218.751 12.345 217.821 13.875C216.921 15.375 216.051 16.995 215.211 18.735C215.451 18.735 215.691 18.735 215.931 18.735C216.201 18.735 216.456 18.735 216.696 18.735C217.896 18.735 219.036 18.72 220.116 18.69C221.196 18.63 222.291 18.54 223.401 18.42V19.68C221.751 19.86 220.236 19.995 218.856 20.085C217.506 20.175 216.246 20.22 215.076 20.22C214.986 20.22 214.881 20.22 214.761 20.22C214.671 20.22 214.581 20.22 214.491 20.22C213.831 21.75 213.261 23.31 212.781 24.9C212.331 26.49 212.106 28.035 212.106 29.535C212.106 30.795 212.301 31.695 212.691 32.235C213.081 32.745 213.711 33 214.581 33C216.081 33 217.611 32.31 219.171 30.93C220.731 29.55 222.081 27.69 223.221 25.35L223.851 25.8C223.101 27.54 222.156 29.115 221.016 30.525C219.876 31.935 218.631 33.045 217.281 33.855C215.961 34.665 214.581 35.07 213.141 35.07ZM225.521 34.305C224.261 34.305 223.316 33.915 222.686 33.135C222.056 32.385 221.741 31.455 221.741 30.345C221.741 29.655 221.861 28.785 222.101 27.735C222.341 26.685 222.671 25.59 223.091 24.45C223.541 23.28 224.051 22.185 224.621 21.165C225.191 20.145 225.791 19.32 226.421 18.69C227.081 18.03 227.726 17.7 228.356 17.7C228.686 17.7 228.971 17.805 229.211 18.015C229.481 18.225 229.616 18.525 229.616 18.915C229.616 19.305 229.376 19.89 228.896 20.67C228.446 21.45 227.906 22.365 227.276 23.415C226.646 24.435 226.091 25.5 225.611 26.61C225.161 27.72 224.936 28.785 224.936 29.805C224.936 30.795 225.116 31.455 225.476 31.785C225.836 32.115 226.361 32.28 227.051 32.28C228.071 32.28 229.166 31.77 230.336 30.75C231.536 29.73 232.781 27.945 234.071 25.395L234.656 26.025C233.666 28.665 232.346 30.705 230.696 32.145C229.076 33.585 227.351 34.305 225.521 34.305ZM230.876 13.875C230.336 13.875 229.841 13.74 229.391 13.47C228.971 13.2 228.761 12.795 228.761 12.255C228.761 11.535 229.136 10.935 229.886 10.455C230.666 9.945 231.461 9.69 232.271 9.69C232.781 9.69 233.201 9.81 233.531 10.05C233.861 10.29 234.026 10.695 234.026 11.265C234.026 11.895 233.696 12.495 233.036 13.065C232.376 13.605 231.656 13.875 230.876 13.875Z" fill="#7C6A46"/>
</svg>
