<svg width="23" height="20" viewBox="0 0 23 20" fill="none" xmlns="http://www.w3.org/2000/svg">
<path d="M11.709 0.410103C11.5759 0.306347 11.412 0.25 11.2433 0.25C11.0745 0.25 10.9106 0.306347 10.7775 0.410103L0 8.81385L0.93225 9.99285L2.25 8.96535V18.2496C2.25079 18.6472 2.40908 19.0283 2.69022 19.3094C2.97135 19.5905 3.35242 19.7488 3.75 19.7496H18.75C19.1476 19.7488 19.5287 19.5905 19.8098 19.3094C20.0909 19.0283 20.2492 18.6472 20.25 18.2496V8.9721L21.5677 9.9996L22.5 8.8206L11.709 0.410103ZM12.75 18.2496H9.75V12.2496H12.75V18.2496ZM14.25 18.2496V12.2496C14.2496 11.8519 14.0914 11.4706 13.8102 11.1894C13.529 10.9082 13.1477 10.75 12.75 10.7496H9.75C9.3523 10.75 8.971 10.9082 8.68978 11.1894C8.40856 11.4706 8.2504 11.8519 8.25 12.2496V18.2496H3.75V7.7961L11.25 1.9536L18.75 7.8036V18.2496H14.25Z" fill="black"/>
</svg>
